HIERARCHY
ROOT pelvis
{
  OFFSET 0 100 0
  CHANNELS 6 Xposition Yposition Zposition Zrotation Xrotation Yrotation
  JOINT pelvis_right_femur
  {
    OFFSET -10.78128 -3.44521 -0.5502486
    CHANNELS 3 Zrotation Xrotation Yrotation
    JOINT right_femur_tibia
    {
      OFFSET -0.8047443 -44.0398 -0.1307829
      CHANNELS 3 Zrotation Xrotation Yrotation
      JOINT right_tibia_foot
      {
        OFFSET 3.006224 -47.83518 -5
        CHANNELS 3 Zrotation Xrotation Yrotation
        End Site
        {
          OFFSET 0 -5 15
        }
      }
    }
  }
  JOINT pelvis_left_femur
  {
    OFFSET 10.78128 -3.44521 -0.5502486
    CHANNELS 3 Zrotation Xrotation Yrotation
    JOINT left_femur_tibia
    {
      OFFSET 0.8047443 -44.0398 -0.1307829
      CHANNELS 3 Zrotation Xrotation Yrotation
      JOINT left_tibia_foot
      {
        OFFSET -4.370144 -48.10324 -4.275266
        CHANNELS 3 Zrotation Xrotation Yrotation
        End Site
        {
          OFFSET 0 -5 15
        }
      }
    }
  }
  JOINT pelvis_spine1
  {
    OFFSET 0 6.468898 -3.129235
    CHANNELS 3 Zrotation Xrotation Yrotation
    JOINT spine1
    {
      OFFSET 0 23.15396 4.99043
      CHANNELS 3 Zrotation Xrotation Yrotation
      JOINT spine2
      {
        OFFSET 0 20.79997 -5.064912
        CHANNELS 3 Zrotation Xrotation Yrotation
        JOINT neck
        {
          OFFSET 0 14.38658 9.616178
          CHANNELS 3 Zrotation Xrotation Yrotation
          End Site
          {
            OFFSET 0 20 0
          }
        }
      }
      JOINT right_manubrium
      {
        OFFSET -5.722621 16.35077 3.967754
        CHANNELS 3 Zrotation Xrotation Yrotation
        JOINT right_clavicle
        {
          OFFSET -13.16364 1.694482 -4.693211
          CHANNELS 3 Zrotation Xrotation Yrotation
          JOINT right_humerus
          {
            OFFSET -28.5034 -0.3100689 -2.792744
            CHANNELS 3 Zrotation Xrotation Yrotation
            JOINT right_radius
            {
              OFFSET -25.15693 0.02248979 -1.271978
              CHANNELS 3 Zrotation Xrotation Yrotation
              End Site
              {
                OFFSET -15 0 0
              }
            }
          }
        }
      }
      JOINT left_manubrium
      {
        OFFSET 5.722621 16.35077 3.967754
        CHANNELS 3 Zrotation Xrotation Yrotation
        JOINT left_clavicle
        {
          OFFSET 13.16364 1.694482 -4.693211
          CHANNELS 3 Zrotation Xrotation Yrotation
          JOINT left_humerus
          {
            OFFSET 29.39168 -1.063119 -2.237045
            CHANNELS 3 Zrotation Xrotation Yrotation
            JOINT left_radius
            {
              OFFSET 24.59957 -0.9528479 0.9047498
              CHANNELS 3 Zrotation Xrotation Yrotation
              End Site
              {
                OFFSET 15 -0 -0
              }
            }
          }
        }
      }
    }
  }
}
MOTION
Frames: 9
Frame Time: 0.0416666666667
0 103.5113 0 1.057371 -3.284869 -0.08998743 2.267399 -12.68452 7.753346 -0 40.72376 -0 -6.267929 -16.77956 -4.019774 -6.354552 12.20411 -23.73929 -0 6.087697 -0 2.85125 -18.15339 24.70833 -0.6909203 -1.527429 3.622744 0.7617931 6.877719 -7.654606 1.817322 22.50874 7.564418 4.583812 -23.26734 9.048875 5.017824 -17.91242 9.630052 89.89658 35.43248 -24.91162 -0 0 14.86927 -6.699032 8.737712 1.80163 6.85073 -21.21524 -2.680405 -98.39477 42.66461 25.3349 0 0 -27.10232 -9.057166 17.56828 27.87471
0.2115327 103.8253 1.255563 0.4856616 -2.740153 -0.2972158 2.980596 -13.90028 8.448693 -0 41.83531 -0 -6.359681 -16.15688 -4.206633 -5.989094 11.77733 -23.71951 -0 6.479122 -0 1.708178 -18.67926 24.30318 -0.6731407 -1.535096 3.716424 0.7356752 6.942191 -7.634594 1.803476 22.48584 7.563661 4.593609 -23.2452 9.025578 5.059157 -17.92246 9.64363 89.82834 35.59522 -24.82594 -0 0 14.83947 -6.76726 8.847643 1.836414 6.895532 -21.305 -2.642484 -98.29239 42.40137 25.28701 0 0 -27.10453 -8.701135 17.61555 27.52658
0.4657855 103.9749 2.94363 -0.1385142 -0.5574275 -0.3847532 4.212571 -20.30949 8.026833 -0 36.33566 -0 -6.285924 -13.1764 -4.042229 -5.823515 11.64221 -22.03031 -0 6.063625 -0 1.832888 -20.61271 22.75117 -0.9809675 -1.449234 3.580116 1.135028 7.01008 -7.710125 1.625195 22.44825 7.511757 4.482401 -23.35375 8.772206 5.41432 -17.67336 9.972946 88.94929 35.50703 -23.99196 -0 0 14.57397 -7.288781 9.067247 2.722406 6.503369 -20.95718 -2.616239 -97.51459 41.00214 24.61573 0 0 -25.80202 -8.159442 17.35233 26.47125
0.7247686 103.8898 4.996672 -0.467042 0.7481889 -0.3349335 4.870874 -24.75182 7.535883 -0 32.07805 -0 -6.123764 -11.15266 -3.985238 -5.702557 11.8929 -20.79746 -0 5.828136 -0 1.696932 -22.01436 21.46536 -1.106102 -1.33271 3.528926 1.308503 7.060052 -7.719323 1.526339 22.43483 7.501306 4.452478 -23.35874 8.603609 5.557828 -17.52816 10.16222 88.53446 35.61173 -23.50152 -0 0 14.3298 -7.805112 9.312932 3.297908 6.259312 -20.78959 -2.63335 -97.01603 40.23212 24.22805 0 0 -25.22013 -7.931965 17.16302 26.00011
0.9642686 103.5424 7.444097 -0.6038581 1.787909 -0.1685247 5.258321 -28.58723 7.019454 -0 27.42418 -0 -5.795979 -9.596727 -4.013936 -5.658163 12.49654 -19.80288 -0 5.72404 -0 1.679444 -23.25681 20.38272 -1.221022 -1.164883 3.450971 1.476341 7.096974 -7.717662 1.424535 22.43561 7.503008 4.433843 -23.33728 8.417525 5.664629 -17.3643 10.3622 88.16292 35.75519 -22.99797 -0 0 14.01778 -8.475103 9.610372 3.954965 5.963232 -20.58964 -2.689854 -96.478 39.51335 23.8203 0 0 -24.6831 -7.871232 16.91476 25.70267
1.17225 102.9566 10.29786 -0.6621981 2.557039 0.1030577 5.497518 -31.62409 6.549967 -0 23.09095 -0 -5.46051 -8.30833 -4.029825 -5.618475 13.3079 -19.0878 -0 5.997884 -0 1.608624 -24.17078 19.46752 -1.321884 -0.9535083 3.376895 1.629439 7.144543 -7.700132 1.315791 22.44296 7.516643 4.426788 -23.28102 8.211028 5.74892 -17.18793 10.57472 87.81191 35.97938 -22.45711 -0 0 13.63479 -9.323634 9.993135 4.703691 5.633747 -20.38701 -2.773991 -95.87214 38.75478 23.37965 0 0 -24.18731 -7.853144 16.62141 25.45579
1.34621 102.2082 13.58671 -0.7677114 3.173024 0.4823224 5.784786 -34.01261 6.178537 -0 19.37969 -0 -5.254405 -7.026772 -3.926624 -5.510079 14.1968 -18.62122 -0 6.852491 -0 1.326046 -24.69129 18.57738 -1.422339 -0.7114493 3.286882 1.784366 7.194481 -7.677625 1.199001 22.4585 7.542188 4.421131 -23.20427 7.995748 5.815828 -16.99796 10.79832 87.47891 36.23206 -21.89815 -0 0 13.19596 -10.31607 10.42992 5.53474 5.267253 -20.16293 -2.887102 -95.21672 37.96916 22.90871 0 0 -23.69523 -7.897805 16.28018 25.26383
1.48492 101.4079 17.36508 -1.013867 3.633074 0.9743553 6.208039 -35.69237 5.829762 -0 16.62659 -0 -5.322485 -5.572607 -3.629121 -5.250511 15.07446 -18.27014 -0 8.538186 -0 0.5422327 -24.66882 17.44783 -1.523377 -0.4598141 3.182488 1.940536 7.24706 -7.656483 1.077555 22.48036 7.578914 4.411146 -23.11659 7.788306 5.867562 -16.80447 11.02206 87.17771 36.48573 -21.35678 -0 0 12.72652 -11.39302 10.89277 6.405473 4.884766 -19.92768 -3.022168 -94.54344 37.17409 22.42589 0 0 -23.21172 -7.976016 15.90941 25.09957
1.581998 100.7012 21.70177 -1.455807 3.877985 1.567934 6.780971 -36.37961 5.391533 -0 15.12256 -0 -5.786722 -4.04635 -3.141644 -4.767581 15.85988 -17.88016 -0 11.37658 -0 -1.119631 -23.88583 15.7848 -1.62027 -0.2215081 3.068512 2.090172 7.298781 -7.640989 0.9589296 22.50765 7.624773 4.394162 -23.02791 7.607645 5.901244 -16.62187 11.2293 86.93485 36.71722 -20.88146 -0 0 12.25989 -12.46875 11.34456 7.249798 4.514944 -19.6979 -3.170094 -93.90057 36.42219 21.96365 0 0 -22.76566 -8.07158 15.53822 24.96002
